<svg id="Layer_1" height="512" viewBox="0 0 512 512" width="512" xmlns="http://www.w3.org/2000/svg" data-name="Layer 1"><path d="m89.36 369.01h94.59 144.1 94.6 16.86v43.54h-22.75-91.25-139.01-91.26-22.75v-43.54z" fill="#f4b844"/><path d="m95.22 99.45h91.26 139.04 91.26 22.73v43.54h-16.84-94.6-144.13-94.61-16.84v-43.54z" fill="#f4b844"/><g fill="#00acea"><path d="m422.67 143.26a1010.766 1010.766 0 0 1 -.02 225.62v.13h-94.6c3.65-74.97 3.66-150.65.02-225.63v-.39h94.6z"/><path d="m416.78 99.45h-91.26q-2.145-31.515-5.14-62.74h84.52q6.945 31.215 11.88 62.74z"/><path d="m416.76 412.55v.1q-4.935 31.455-11.86 62.64h-84.52q3-31.17 5.13-62.64v-.1z"/></g><path d="m328.07 143.38c3.64 74.98 3.63 150.66-.02 225.63h-144.1c-3.65-75.02-3.66-150.75-.01-225.77v-.25h144.13zm-32.33 112.62a39.74 39.74 0 1 0 -39.74 39.74 39.737 39.737 0 0 0 39.74-39.74z" fill="#00efd1"/><path d="m325.52 99.45h-139.04q2.13-31.5 5.14-62.74h128.76q3.02 31.23 5.14 62.74z" fill="#00efd1"/><path d="m325.51 412.55v.1q-2.13 31.455-5.13 62.64h-128.76q-3-31.1-5.12-62.47v-.27z" fill="#00efd1"/><circle cx="256" cy="256" fill="#ea5281" r="39.74"/><path d="m107.1 36.71h84.52q-3 31.215-5.14 62.74h-91.26q4.935-31.5 11.88-62.74z" fill="#00acea"/><path d="m191.62 475.29h-84.52q-6.93-31.155-11.86-62.6v-.14h91.26v.27q2.13 31.365 5.12 62.47z" fill="#00acea"/><path d="m183.95 369.01h-94.59a1010.913 1010.913 0 0 1 -.03-225.77v-.25h94.61v.25c-3.65 75.02-3.64 150.75.01 225.77z" fill="#00acea"/><path d="m256 210.26a45.74 45.74 0 1 0 45.74 45.74 45.792 45.792 0 0 0 -45.74-45.74zm0 79.48a33.74 33.74 0 1 1 33.74-33.74 33.779 33.779 0 0 1 -33.74 33.74z" fill="#083863"/><path d="m72.49 419h17.616c3.148 19 6.884 38.554 11.137 57.673a5.687 5.687 0 0 0 5.857 4.327h297.8a5.686 5.686 0 0 0 5.857-4.328c4.243-19.102 7.981-38.672 11.131-57.672h17.622a6.834 6.834 0 0 0 6.49-6.45v-43.54c0-3.314-3.176-6.01-6.49-6.01h-10.21a1018.206 1018.206 0 0 0 0-214h10.2c3.314 0 6.49-2.7 6.49-6.01v-43.54a6.834 6.834 0 0 0 -6.48-6.45h-17.618c-3.143-19-6.879-38.544-11.135-57.673a5.688 5.688 0 0 0 -5.857-4.327h-297.8a5.684 5.684 0 0 0 -5.857 4.33c-4.276 19.258-8.011 38.67-11.135 57.67h-17.618a6.834 6.834 0 0 0 -6.49 6.45v43.54c0 3.314 3.176 6.01 6.49 6.01h10.2a1018.274 1018.274 0 0 0 0 214h-10.2c-3.314 0-6.49 2.7-6.49 6.01v43.54a6.834 6.834 0 0 0 6.49 6.45zm29.794 0h78.6c1.2 17 2.588 34 4.141 50h-73.1c-3.642-16-6.856-33-9.641-50zm94.792 50c-1.56-16-2.946-33-4.154-50h126.154c-1.2 16-2.581 34-4.153 50zm203 0h-73.115c1.565-17 2.954-34 4.144-50h78.6c-2.781 17-5.994 34-9.63 50zm17.16-106h-82.906c3.265-71 3.266-143 0-214h82.908a1006.161 1006.161 0 0 1 -.003 214zm-227.552 0c-3.282-71-3.281-143 0-214h132.635c3.281 71 3.28 143 0 214zm220.03-270h-78.6c-1.213-17-2.6-34-4.141-50h73.1c3.647 16 6.86 33 9.641 50zm-94.79-50c1.548 16 2.944 33 4.164 50h-126.167c1.186-16 2.572-33 4.157-50zm-203 0h73.113c-1.577 17-2.967 34-4.147 50h-78.63c2.766-16 6.007-33 9.666-50zm-33.924 62h356v32h-356zm16.758 44h82.914c-3.266 71-3.266 143 0 214h-82.911a1006.358 1006.358 0 0 1 -.003-214zm-16.758 226h356v32h-356z" fill="#083863"/></svg>