<svg height="496pt" viewBox="-72 0 496 496" width="496pt" xmlns="http://www.w3.org/2000/svg"><path d="m224 120c0-31.367188 8.816406-62.105469 25.441406-88.703125l14.558594-23.296875h-43.152344c-17.582031 0-33.992187 8.625-44.0625 22.976562-.785156-1.273437-1.488281-2.578124-2.386718-3.777343-9.0625-12.085938-23.285157-19.199219-38.398438-19.199219h-48c25.609375 25.609375 40 60.351562 40 96.566406v15.433594" fill="#2d4d83"/><path d="m344 352c0-83.945312-75.214844-168-168-168s-168 84.054688-168 168 75.214844 136 168 136 168-52.054688 168-136zm0 0" fill="#2d4d83"/><path d="m300.929688 243.222656c-30.761719-35.191406-75.328126-59.222656-124.929688-59.222656-92.785156 0-168 84.054688-168 168 0 39.679688 16.945312 72.121094 44.472656 95.414062 5.136719.347657 10.304688.585938 15.527344.585938 117.425781 0 214.769531-88.671875 232.929688-204.777344zm0 0" fill="#4472b2"/><path d="m224 120h-96c-8.839844 0-16 7.160156-16 16s7.160156 16 16 16h96c8.839844 0 16-7.160156 16-16s-7.160156-16-16-16zm0 0" fill="#4472b2"/><path d="m224 152h-96c-8.839844 0-16 7.160156-16 16s7.160156 16 16 16h96c8.839844 0 16-7.160156 16-16s-7.160156-16-16-16zm0 0" fill="#2d4d83"/><path d="m176 496c-101.984375 0-176-60.558594-176-144 0-92.113281 83.886719-176 176-176s176 83.886719 176 176c0 83.441406-74.015625 144-176 144zm0-304c-91.574219 0-160 84.472656-160 160 0 75.359375 65.800781 128 160 128s160-52.640625 160-128c0-75.527344-68.425781-160-160-160zm0 0"/><path d="m224 192h-96c-13.230469 0-24-10.769531-24-24s10.769531-24 24-24h96c13.230469 0 24 10.769531 24 24s-10.769531 24-24 24zm-96-32c-4.414062 0-8 3.59375-8 8s3.585938 8 8 8h96c4.414062 0 8-3.59375 8-8s-3.585938-8-8-8zm0 0"/><path d="m224 160h-96c-13.230469 0-24-10.769531-24-24s10.769531-24 24-24h96c13.230469 0 24 10.769531 24 24s-10.769531 24-24 24zm-96-32c-4.414062 0-8 3.59375-8 8s3.585938 8 8 8h96c4.414062 0 8-3.59375 8-8s-3.585938-8-8-8zm0 0"/><path d="m136 120h-16v-15.433594c0-34.335937-13.375-66.621094-37.65625-90.910156-2.289062-2.289062-2.976562-5.726562-1.734375-8.71875 1.230469-2.984375 4.160156-4.9375 7.390625-4.9375h48c17.527344 0 34.28125 8.375 44.800781 22.398438 7.222657 9.625 11.199219 21.5625 11.199219 33.601562v16h-16v-16c0-8.601562-2.839844-17.128906-8-24-7.511719-10.015625-19.480469-16-32-16h-30.28125c19.640625 25.230469 30.28125 56.089844 30.28125 88.566406zm0 0"/><path d="m232 120h-16c0-32.902344 9.214844-65.046875 26.65625-92.945312l6.902344-11.054688h-28.71875c-15.382813 0-29.65625 7.640625-38.183594 20.441406l-13.3125-8.875c11.496094-17.261718 30.761719-27.566406 51.496094-27.566406h43.160156c2.902344 0 5.585938 1.574219 7 4.121094 1.40625 2.542968 1.328125 5.65625-.214844 8.117187l-14.5625 23.296875c-15.847656 25.351563-24.222656 54.5625-24.222656 84.464844zm0 0"/><path d="m176 464v-16c63.710938 0 128-29.679688 128-96h16c0 66.992188-57.863281 112-144 112zm0 0"/><path d="m264 296h-16c0-39.136719-15.238281-75.921875-42.910156-103.601562l-2.753906-2.75 11.328124-11.304688 2.742188 2.746094c30.691406 30.695312 47.59375 71.503906 47.59375 114.910156zm0 0"/><path d="m168 296h-16c0-43.40625 16.902344-84.214844 47.601562-114.910156l2.734376-2.746094 11.328124 11.304688-2.742187 2.742187c-27.683594 27.6875-42.921875 64.472656-42.921875 103.609375zm0 0"/></svg>