<?xml version="1.0" encoding="iso-8859-1"?>
<!-- Generator: Adobe Illustrator 19.1.0, SVG Export Plug-In . SVG Version: 6.00 Build 0)  -->
<svg version="1.1" id="Capa_1" xmlns="http://www.w3.org/2000/svg" xmlns:xlink="http://www.w3.org/1999/xlink" x="0px" y="0px"
	 viewBox="0 0 216.292 216.292" style="enable-background:new 0 0 216.292 216.292;" xml:space="preserve">
<g>
	<g id="group-43svg">
		<path id="path-1_106_" style="fill:#FBB713;" d="M62.279,194.367h12.389c2.388,0,4.324,1.215,4.324,2.715
			c0,1.498-1.936,2.714-4.324,2.714H74.09c-2.387,0-4.325,1.216-4.325,2.713c0,1.5,1.938,2.715,4.325,2.715h26.63
			c2.387,0,4.325,1.215,4.325,2.714s-1.938,2.714-4.325,2.714H68.719H33.546c-2.388,0-4.325-1.215-4.325-2.714
			s1.937-2.714,4.325-2.714h7.39c2.389,0,4.325-1.215,4.325-2.715c0-1.497-1.936-2.713-4.325-2.713H5.764
			c-2.388,0-4.325-1.216-4.325-2.714c0-1.5,1.937-2.715,4.325-2.715h8.313H62.279z"/>
		<path id="path-2_106_" style="fill:#FBB713;" d="M36.205,153.243h5.24c1.01,0,1.828,0.877,1.828,1.96
			c0,1.081-0.818,1.958-1.828,1.958h-0.244c-1.011,0-1.829,0.877-1.829,1.958c0,1.082,0.818,1.959,1.829,1.959h11.263
			c1.009,0,1.829,0.877,1.829,1.959s-0.82,1.959-1.829,1.959H38.928H24.051c-1.009,0-1.829-0.877-1.829-1.959
			s0.82-1.959,1.829-1.959h3.126c1.011,0,1.829-0.877,1.829-1.959c0-1.081-0.818-1.958-1.829-1.958H12.3
			c-1.01,0-1.828-0.877-1.828-1.958c0-1.083,0.818-1.96,1.828-1.96h3.516H36.205z"/>
		<path id="path-3_106_" style="fill:#FBB713;" d="M143.336,216.292c3.582,0,6.486-1.822,6.486-4.072
			c0-2.248-2.904-4.071-6.486-4.071h-19.878c-3.583,0-6.487,1.823-6.487,4.071c0,2.25,2.904,4.072,6.487,4.072H143.336z"/>
		<path id="path-4_105_" style="fill:#FF3A2F;" d="M146.813,0l-8.42,22.548l19.679,7.211l-11.227,30.064l7.588,2.78l11.227-30.064
			l19.678,7.212l8.421-22.547L146.813,0z M180.465,32.269l-33.722-12.356l4.678-12.528l33.722,12.358L180.465,32.269z"/>
		<path id="path-5_105_" style="fill:#FBB713;" d="M177.865,60.839c-3.836,0-7.345,1.259-10.067,3.342
			c-3.435-6.199-10.478-10.461-18.631-10.461c-10.55,0-19.249,7.127-20.651,16.372c-1.999-3.525-5.995-5.961-10.656-5.961
			c-2.349,0-4.525,0.637-6.376,1.696c-2.871-3.05-7.127-4.988-11.886-4.988c-8.645,0-15.653,6.374-15.653,14.237h109.573
			C193.518,67.213,186.511,60.839,177.865,60.839z"/>
		<path id="path-6_104_" style="fill:#2476FF;" d="M191.543,195.376H90.47V97.303h101.073V195.376z"/>
		<path id="path-7_104_" style="opacity:0.25;fill:#020403;enable-background:new    ;" d="M90.47,97.303v7.237l79.158,7.236v83.6
			h21.915V97.303H90.47z"/>
		<path id="path-8_101_" style="fill:#2476FF;" d="M200.967,97.303H81.046V72.556h119.921V97.303z"/>
		<path id="path-9_96_" style="opacity:0.35;fill:#020403;enable-background:new    ;" d="M145.644,190.545
			c-23.774,0-45.874-17.164-54.274-24.545c-1.503-1.321-1.639-3.6-0.306-5.089c1.333-1.491,3.635-1.623,5.138-0.304
			c6.067,5.331,27.563,22.728,49.442,22.728c16.154,0,28.957-3.752,40.297-11.81c1.642-1.164,3.905-0.788,5.078,0.828
			c1.173,1.618,0.796,3.87-0.835,5.03C177.722,186.24,163.151,190.545,145.644,190.545z"/>
		<path id="path-10_88_" style="opacity:0.25;fill:#020403;enable-background:new    ;" d="M179.052,72.556v17.512H81.046v7.235
			h119.921V72.556H179.052z"/>
		<path id="path-11_77_" style="fill:#142A3B;" d="M199.945,127.246h-8.402v-21.998h8.402V127.246z"/>
		<path id="path-12_66_" style="fill:#142A3B;" d="M91.096,127.594h-8.403v-21.997h8.403V127.594z"/>
		<path id="path-13_54_" style="fill:#142A3B;" d="M141.991,179.69c-40.174,0-72.86-28.304-72.86-63.096v-3.695l17.853,0.44
			l-0.176,7.208l-10.257-0.253c2.243,29.097,30.736,52.187,65.44,52.187c34.743,0,63.261-23.139,65.449-52.282h-13.373v-7.21h20.786
			v3.605C214.853,151.386,182.167,179.69,141.991,179.69z"/>
	</g>
</g>
<g>
</g>
<g>
</g>
<g>
</g>
<g>
</g>
<g>
</g>
<g>
</g>
<g>
</g>
<g>
</g>
<g>
</g>
<g>
</g>
<g>
</g>
<g>
</g>
<g>
</g>
<g>
</g>
<g>
</g>
</svg>
