<svg id="color" height="512" viewBox="0 0 64 64" width="512" xmlns="http://www.w3.org/2000/svg"><path d="m8.043 21-1.043-6.75 2-7.25 7 3 7-3 2-4.042 9 .042 4 10 8-5 4.868 1 4.132 8-1.043 4z" fill="#b9e2ef"/><path d="m37 21v-2.772a6.151 6.151 0 0 0 -5.249-6.182 6 6 0 0 0 -6.751 5.954v3h-18l2 40h44l2-40z" fill="#22b573"/><path d="m55 21h-18v-2.772a6.151 6.151 0 0 0 -5.249-6.182 6 6 0 0 0 -6.751 5.954v3h-18l.3 6h47.4z" fill="#006837"/><path d="m17 45 2-2-2-2 .893-25a2.895 2.895 0 1 0 -5.786 0l.893 25-2 2 2 2-2 2 2 2-2 2 2 2 2-2 2 2 2-2-2-2 2-2z" fill="#e6e6e6"/><path d="m7.3 27-.3-6z" fill="#706f87"/><path d="m54.768 25.646.146-2.934z" fill="#f2f2f2"/><path d="m29.19 16.582a1.987 1.987 0 0 0 0 2.81l24.418 26.026a1.987 1.987 0 0 0 2.81 0 1.987 1.987 0 0 0 0-2.81l-24.418-26.026a1.987 1.987 0 0 0 -2.81 0z" fill="#e6e6e6"/><g fill="#87e0f4"><path d="m42 14 4-3 4 2 1 3-2-2-3-1z"/><path d="m22 11 3-3 5 1h-4z"/><path d="m9 14 1-3h4l-3 1z"/></g></svg>